<svg id="Layer_1" data-name="Layer 1" xmlns="http://www.w3.org/2000/svg" xmlns:xlink="http://www.w3.org/1999/xlink" viewBox="0 0 595.28 841.89"><defs><style>.cls-1{fill:url(#radial-gradient);}.cls-2{fill:#fff;stroke:#231f20;stroke-miterlimit:10;}</style><radialGradient id="radial-gradient" cx="298.21" cy="390.32" r="327.83" gradientUnits="userSpaceOnUse"><stop offset="0.54" stop-color="#231f20"/><stop offset="0.6" stop-color="#fff"/><stop offset="0.71" stop-color="#fff"/></radialGradient></defs><path class="cls-1" d="M483.55,374.65c2.1-9.86,3.26-13.36-1.18-23-3.83-8.3-8.45-16.27-10-25.38-1.21-7.06-.59-14.25-3.65-20.92s-8.55-10.84-13.39-16c-5.82-6.18-9.45-13.24-13.44-20.6-5.06-9.31-10.28-11.74-18.79-17.63-7.34-5.08-12-13.12-19.15-18.13-5.33-3.75-12.4-4-18.35-6.6-6.95-3.06-12.48-8-19.86-10.11-9-2.57-18.22-3-26.91-6.89-6.51-2.89-12.42-8.17-19.53-9.52a37.72,37.72,0,0,0-5.71-.58,14.61,14.61,0,0,1-1.58.51,15.62,15.62,0,0,1-14.2.28,14.35,14.35,0,0,1-2.28-.6,14.08,14.08,0,0,1-4.71-1.59,13.4,13.4,0,0,1-4.82-2.25c-.26-.08-.53-.15-.78-.24a18.52,18.52,0,0,1-2.17.37c-3.11.3-6,4.73-8.05,6.62a47.84,47.84,0,0,1-11.84,8.27c-8.22,3.85-16.43,3.75-25.15,2.45-10.44-1.55-11.21.52-18.55,7.28-6.13,5.64-13,8.76-21,10.64-9.72,2.27-15.66,2.12-21.65,10.75-4.56,6.58-7.75,14.07-11.7,21-9.49,16.65-25.17,28.5-34.91,44.83-6,10-5.7,20.16-8.1,31.18-2.07,9.54-7.65,17.62-10.35,26.94-5.87,20.24,4.2,40.92,3.2,61.47-.44,8.89-2.61,19.59,2.76,27.51,5.9,8.7,15.18,12.68,18.13,23.77,2.11,7.94-1.11,14.48,5.37,20.54,4.36,4.09,9.66,7.19,14.91,10.23,4.35.14,8.56,2.36,11.24,7.52,5.92,11.42,13.91,37.34,28.8,37.42,8.59,0,16.43-.77,24.51,3.18,7.15,3.5,12.06,9.57,18,14.63,12.21,10.35,24.27,1.38,38.49,2,11.41.5,31.43,16.2,41.34,4.22,1.83-5.15,6.34-9.11,13.53-8.79,9.08.4,21.48,5.29,28.55-1.47,6.8-6.51,12.05-12.66,21-16.29,6.88-2.77,13.66-3,20.86-4.12,8.36-1.32,10.07-8.12,14-14.9,5.32-9.15,11.34-15.14,20.79-19.87,9.76-4.88,9.47-9.64,13.54-19.2,4.2-9.87,12.71-16.55,16.81-26.5,2.1-5.12,3.73-10.07,4.11-15.52.29-4.17,0-7.79.62-11.71a12.89,12.89,0,0,1,2.83-8.66c2.84-3.79,5.91-7.47,9.13-11.1.18-1.26.31-2.66.41-4.24A79.26,79.26,0,0,0,483.47,399C482.15,390.38,481.72,383.25,483.55,374.65Z"/><circle class="cls-2" cx="298.21" cy="390.32" r="173.25"/></svg>