<svg id="Layer_1" data-name="Layer 1" xmlns="http://www.w3.org/2000/svg" xmlns:xlink="http://www.w3.org/1999/xlink" viewBox="0 0 2152.77 398.9"><defs><style>.cls-1{fill:url(#radial-gradient);}.cls-2{fill:#fff;}.cls-2,.cls-4{stroke:#231f20;stroke-miterlimit:10;}.cls-3{font-size:30.05px;}.cls-3,.cls-5{fill:#231f20;font-family:ShreeDev0714, "Shree Devanagari 714";}.cls-4{fill:none;}.cls-5{font-size:20.03px;}.cls-6{fill:url(#radial-gradient-2);}</style><radialGradient id="radial-gradient" cx="298.21" cy="401.9" r="327.83" gradientUnits="userSpaceOnUse"><stop offset="0.54" stop-color="#231f20"/><stop offset="0.6" stop-color="#fff"/><stop offset="0.71" stop-color="#fff"/></radialGradient><radialGradient id="radial-gradient-2" cx="913.49" cy="390.32" r="327.83" xlink:href="#radial-gradient"/></defs><path class="cls-1" d="M483.55,386.23c2.1-9.86,3.26-13.37-1.18-23-3.83-8.3-8.45-16.27-10-25.38-1.21-7.07-.59-14.25-3.65-20.92s-8.55-10.84-13.39-16c-5.82-6.18-9.45-13.24-13.44-20.6-5.06-9.32-10.28-11.74-18.79-17.63-7.34-5.08-12-13.12-19.15-18.13-5.33-3.75-12.4-4-18.35-6.61-6.95-3.06-12.48-8-19.86-10.1-9-2.58-18.22-3-26.91-6.89-6.51-2.89-12.42-8.17-19.53-9.52a37.72,37.72,0,0,0-5.71-.58,14.61,14.61,0,0,1-1.58.51,15.7,15.7,0,0,1-14.2.28,53.71,53.71,0,0,1-7-2.19,13.57,13.57,0,0,1-4.82-2.25c-.26-.08-.53-.15-.78-.25a18.52,18.52,0,0,1-2.17.38c-3.11.3-6,4.73-8.05,6.62a47.54,47.54,0,0,1-11.84,8.26c-8.22,3.86-16.43,3.76-25.15,2.46-10.44-1.55-11.21.52-18.55,7.27-6.13,5.65-13,8.77-21,10.65-9.72,2.27-15.66,2.12-21.65,10.75-4.56,6.58-7.75,14.07-11.7,21-9.49,16.65-25.17,28.5-34.91,44.83-6,10-5.7,20.16-8.1,31.17-2.07,9.55-7.65,17.63-10.35,26.94-5.87,20.24,4.2,40.93,3.2,61.47-.44,8.9-2.61,19.59,2.76,27.52,5.9,8.7,15.18,12.68,18.13,23.77,2.11,7.94-1.11,14.47,5.37,20.54,4.36,4.08,9.66,7.19,14.91,10.22,4.35.15,8.56,2.37,11.24,7.53,5.92,11.42,13.91,37.34,28.8,37.42,8.59.05,16.43-.77,24.51,3.18,7.15,3.5,12.06,9.56,18,14.63,12.21,10.35,24.27,1.38,38.49,2,11.41.5,31.43,16.2,41.34,4.21,1.83-5.14,6.34-9.1,13.53-8.78,9.08.39,21.48,5.29,28.55-1.48,6.8-6.5,12.05-12.65,21-16.28,6.88-2.78,13.66-3,20.86-4.12,8.36-1.32,10.07-8.12,14-14.9,5.32-9.15,11.34-15.15,20.79-19.87,9.76-4.88,9.47-9.64,13.54-19.21,4.2-9.86,12.71-16.55,16.81-26.5a49.36,49.36,0,0,0,4.11-15.52c.29-4.16,0-7.78.62-11.71a12.88,12.88,0,0,1,2.83-8.65c2.84-3.79,5.91-7.47,9.13-11.1.18-1.26.31-2.67.41-4.24a79.21,79.21,0,0,0-1.25-16.85C482.15,402,481.72,394.83,483.55,386.23Z" transform="translate(-109.86 -195.43)"/><circle class="cls-2" cx="188.35" cy="206.47" r="173.25"/><text class="cls-3" transform="translate(82.71 178.96)">A B S E N T I A</text><line class="cls-4" x1="75.84" y1="206.47" x2="305.34" y2="206.47"/><text class="cls-3" transform="translate(82.71 178.96)">A B S E N T I A</text><text class="cls-3" transform="translate(82.71 178.96)">A B S E N T I A</text><text class="cls-5" transform="translate(131.03 244.96)">WEB DESIGN</text><path class="cls-6" d="M1098.83,374.65c2.1-9.86,3.26-13.36-1.18-23-3.83-8.3-8.45-16.27-10-25.38-1.21-7.06-.59-14.25-3.65-20.92s-8.56-10.84-13.39-16c-5.83-6.18-9.45-13.24-13.45-20.6-5.05-9.31-10.27-11.74-18.78-17.63-7.35-5.08-12-13.12-19.15-18.13-5.33-3.75-12.41-4-18.35-6.6-7-3.06-12.48-8-19.86-10.11-9-2.57-18.22-3-26.92-6.89-6.51-2.89-12.41-8.17-19.53-9.52a37.59,37.59,0,0,0-5.7-.58,15.36,15.36,0,0,1-1.58.51,15.62,15.62,0,0,1-14.2.28,14.35,14.35,0,0,1-2.28-.6,14,14,0,0,1-4.71-1.59,13.32,13.32,0,0,1-4.82-2.25c-.26-.08-.54-.15-.79-.24a17.83,17.83,0,0,1-2.17.37c-3.11.3-5.95,4.73-8,6.62a47.71,47.71,0,0,1-11.85,8.27c-8.21,3.85-16.43,3.75-25.15,2.45-10.43-1.55-11.2.52-18.54,7.28-6.14,5.64-13,8.76-21,10.64-9.73,2.27-15.67,2.12-21.65,10.75-4.57,6.58-7.75,14.07-11.7,21-9.5,16.65-25.18,28.5-34.91,44.83-6,10-5.71,20.16-8.1,31.18-2.07,9.54-7.65,17.62-10.35,26.94-5.88,20.24,4.2,40.92,3.19,61.47-.43,8.89-2.61,19.59,2.77,27.51,5.9,8.7,15.17,12.68,18.13,23.77,2.11,7.94-1.12,14.48,5.36,20.54,4.36,4.09,9.67,7.19,14.91,10.23,4.35.14,8.57,2.36,11.24,7.52,5.93,11.42,13.91,37.34,28.81,37.42,8.58,0,16.42-.77,24.5,3.18,7.16,3.5,12.07,9.57,18,14.63,12.21,10.35,24.28,1.38,38.49,2,11.42.5,31.43,16.2,41.34,4.22,1.84-5.15,6.34-9.11,13.54-8.79,9.07.4,21.47,5.29,28.55-1.47,6.79-6.51,12-12.66,21-16.29,6.88-2.77,13.65-3,20.85-4.12,8.36-1.32,10.08-8.12,14-14.9,5.32-9.15,11.34-15.14,20.78-19.87,9.77-4.88,9.47-9.64,13.54-19.2,4.2-9.87,12.72-16.55,16.81-26.5,2.11-5.12,3.74-10.07,4.11-15.52.29-4.17,0-7.79.63-11.71a12.84,12.84,0,0,1,2.83-8.66c2.83-3.79,5.91-7.47,9.12-11.1.19-1.26.31-2.66.41-4.24a78,78,0,0,0-1.25-16.85C1097.42,390.38,1097,383.25,1098.83,374.65Z" transform="translate(-109.86 -195.43)"/><circle class="cls-2" cx="803.63" cy="194.89" r="173.25"/><text class="cls-3" transform="translate(1314.41 167.38)">A B S E N T I A</text><line class="cls-4" x1="1307.54" y1="194.89" x2="1537.03" y2="194.89"/><text class="cls-3" transform="translate(1314.41 167.38)">A B S E N T I A</text><text class="cls-3" transform="translate(1314.41 167.38)">A B S E N T I A</text><text class="cls-5" transform="translate(1362.73 233.38)">WEB DESIGN</text><text class="cls-3" transform="translate(1929.51 193.66)">A B S E N T I A</text></svg>