<svg id="Layer_1" data-name="Layer 1" xmlns="http://www.w3.org/2000/svg" xmlns:xlink="http://www.w3.org/1999/xlink" viewBox="0 0 149.97 154.67"><defs><style>.cls-1{fill:url(#radial-gradient);}.cls-2{fill:#fff;}.cls-2,.cls-4{stroke:#231f20;stroke-miterlimit:10;}.cls-3{font-size:12px;}.cls-3,.cls-5{fill:#231f20;font-family:ShreeDev0714, "Shree Devanagari 714";}.cls-4{fill:none;}.cls-5{font-size:8px;}</style><radialGradient id="radial-gradient" cx="263.91" cy="177.05" r="130.92" gradientUnits="userSpaceOnUse"><stop offset="0.54" stop-color="#231f20"/><stop offset="0.6" stop-color="#fff"/><stop offset="0.71" stop-color="#fff"/></radialGradient></defs><path class="cls-1" d="M337.93,170.8c.83-3.94,1.3-5.34-.48-9.18-1.53-3.32-3.37-6.5-4-10.14-.48-2.82-.24-5.69-1.46-8.35s-3.42-4.33-5.35-6.38a37.6,37.6,0,0,1-5.37-8.23c-2-3.72-4.1-4.69-7.5-7-2.93-2-4.8-5.24-7.64-7.24-2.13-1.5-5-1.59-7.33-2.64-2.78-1.22-5-3.19-7.93-4-3.61-1-7.28-1.21-10.75-2.75-2.6-1.16-5-3.27-7.8-3.81a15.73,15.73,0,0,0-2.28-.23,5.81,5.81,0,0,1-.63.21,5.92,5.92,0,0,1-3,.73,6,6,0,0,1-2.71-.62,6.38,6.38,0,0,1-.91-.24,5.5,5.5,0,0,1-1.88-.64,5.29,5.29,0,0,1-1.93-.9c-.1,0-.21,0-.31-.09a7.5,7.5,0,0,1-.87.15c-1.24.12-2.37,1.88-3.21,2.64a19.14,19.14,0,0,1-4.73,3.3c-3.28,1.54-6.56,1.5-10,1-4.17-.62-4.48.21-7.41,2.91a17.88,17.88,0,0,1-8.4,4.25c-3.88.9-6.25.85-8.64,4.29-1.82,2.63-3.1,5.62-4.68,8.39-3.79,6.64-10.05,11.38-13.94,17.9-2.38,4-2.27,8.05-3.23,12.45-.83,3.81-3,7-4.13,10.76-2.35,8.08,1.67,16.34,1.27,24.54-.17,3.56-1,7.83,1.11,11,2.35,3.48,6.06,5.07,7.24,9.49.84,3.17-.45,5.78,2.14,8.21a32,32,0,0,0,6,4.08,5.13,5.13,0,0,1,4.49,3c2.37,4.57,5.56,14.92,11.5,14.95,3.43,0,6.56-.31,9.79,1.27,2.86,1.39,4.82,3.82,7.21,5.84,4.87,4.13,9.69.55,15.37.8,4.55.2,12.55,6.47,16.5,1.68a5.19,5.19,0,0,1,5.41-3.51c3.62.16,8.57,2.12,11.4-.59s4.81-5.05,8.39-6.5c2.75-1.11,5.46-1.19,8.33-1.64,3.34-.53,4-3.25,5.6-6a18.71,18.71,0,0,1,8.3-7.93c3.9-1.95,3.78-3.85,5.41-7.67s5.08-6.61,6.71-10.58a19.64,19.64,0,0,0,1.64-6.2c.12-1.66,0-3.11.25-4.68a5.15,5.15,0,0,1,1.14-3.45c1.13-1.51,2.35-3,3.64-4.43.07-.51.12-1.07.16-1.7a31.47,31.47,0,0,0-.5-6.72A25.53,25.53,0,0,1,337.93,170.8Z" transform="translate(-188.7 -99.23)"/><circle class="cls-2" cx="75.22" cy="77.83" r="69.19"/><text class="cls-3" transform="translate(33.03 66.84)">A B S E N T I A</text><line class="cls-4" x1="30.29" y1="77.83" x2="121.93" y2="77.83"/><text class="cls-3" transform="translate(33.03 66.84)">A B S E N T I A</text><text class="cls-3" transform="translate(33.03 66.84)">A B S E N T I A</text><text class="cls-5" transform="translate(52.32 93.2)">WEB DESIGN</text></svg>