<svg id="Layer_1" data-name="Layer 1" xmlns="http://www.w3.org/2000/svg" viewBox="0 0 384.02 384"><defs><style>.cls-1{fill:#f7f7f7;}.cls-2{fill:#4d4d4d;}</style></defs><path class="cls-1" d="M384,194.64V384H0V194.64c3,9,9.41,12.09,18.71,12.08q154.41-.24,308.83-.1h4.26c.19.39.39.77.58,1.16a27.81,27.81,0,0,0-3.28,2.43q-24.35,24.12-48.61,48.3c-6.6,6.6-6.4,16.29.26,22.21,6.24,5.55,14.84,4.94,21.46-1.63q37.23-36.91,74.34-73.94C379.54,202.16,381.54,198.17,384,194.64Z" transform="translate(0 0)"/><path class="cls-1" d="M0,188.65V0H384V188.65c-2.46-3.53-4.55-7.41-7.46-10.52-6.48-6.92-13.37-13.45-20.11-20.14Q329.19,131,302,103.91c-4.1-4.08-8.86-6-14.61-4.7a14.14,14.14,0,0,0-11,10.16c-1.73,5.84-.29,11,4.11,15.41q24.33,24.12,48.61,48.3c1,1,2,2,3.44,3.58H327.2q-154.23,0-308.47-.1C9.4,176.56,3,179.67,0,188.65Z" transform="translate(0 0)"/><path class="cls-2" d="M0,188.65c3-9,9.4-12.09,18.7-12.08q154.23.24,308.47.1h5.35c-1.5-1.56-2.45-2.59-3.44-3.58q-24.3-24.17-48.61-48.3c-4.4-4.36-5.84-9.57-4.11-15.41a14.11,14.11,0,0,1,11-10.16c5.75-1.32,10.51.62,14.61,4.7Q329.18,131,356.45,158c6.73,6.68,13.62,13.22,20.11,20.14,2.91,3.11,5,7,7.46,10.52v6c-2.46,3.53-4.46,7.51-7.45,10.51q-37,37.13-74.34,73.94c-6.62,6.57-15.22,7.18-21.46,1.63-6.66-5.92-6.86-15.61-.26-22.21q24.23-24.22,48.61-48.3a27.81,27.81,0,0,1,3.28-2.43l-.58-1.16h-4.26q-154.41,0-308.83.1c-9.29,0-15.68-3.1-18.71-12.08C0,192.65,0,190.65,0,188.65Z" transform="translate(0 0)"/></svg>