<?xml version="1.0" encoding="utf-8"?>
<!-- Generator: Adobe Illustrator 25.3.1, SVG Export Plug-In . SVG Version: 6.00 Build 0)  -->
<svg version="1.1" id="Layer_1" xmlns="http://www.w3.org/2000/svg" xmlns:xlink="http://www.w3.org/1999/xlink" x="0px" y="0px"
	 viewBox="0 0 1366 768" style="enable-background:new 0 0 1366 768;" xml:space="preserve">
<style type="text/css">
	.st0{fill:#FFFFFF;}
	.st1{fill:#4D4D4D;}
</style>
<g>
	<path class="st0" d="M816,561.64c0,63.1,0,126.21,0,189.36c-127.91,0-255.81,0-384,0c0-63.09,0-126.22,0-189.36
		c3.03,8.98,9.41,12.09,18.71,12.08c102.94-0.16,205.89-0.1,308.83-0.1c1.42,0,2.84,0,4.26,0c0.19,0.39,0.39,0.77,0.58,1.16
		c-1.1,0.8-2.32,1.48-3.28,2.43c-16.23,16.08-32.45,32.15-48.61,48.3c-6.6,6.6-6.4,16.29,0.26,22.21
		c6.24,5.55,14.84,4.94,21.46-1.63c24.82-24.61,49.66-49.19,74.34-73.94C811.54,569.16,813.54,565.17,816,561.64z"/>
	<path class="st0" d="M432,555.65c0-62.88,0-125.77,0-188.65c128,0,256,0,384,0c0,62.88,0,125.77,0,188.65
		c-2.46-3.53-4.55-7.41-7.46-10.52c-6.48-6.92-13.37-13.45-20.11-20.14c-18.16-18.03-36.34-36.04-54.48-54.08
		c-4.1-4.08-8.86-6.02-14.61-4.7c-5.56,1.28-9.39,4.74-11,10.16c-1.73,5.84-0.29,11.05,4.11,15.41
		c16.22,16.08,32.41,32.19,48.61,48.3c0.99,0.99,1.95,2.02,3.44,3.58c-2.39,0-3.87,0-5.35,0c-102.82,0-205.65,0.06-308.47-0.1
		C441.4,543.56,435.02,546.67,432,555.65z"/>
	<path class="st1" d="M432,555.65c3.02-8.99,9.4-12.09,18.7-12.08c102.82,0.16,205.65,0.1,308.47,0.1c1.48,0,2.96,0,5.35,0
		c-1.5-1.56-2.45-2.59-3.44-3.58c-16.2-16.11-32.39-32.22-48.61-48.3c-4.4-4.36-5.84-9.57-4.11-15.41c1.61-5.42,5.44-8.89,11-10.16
		c5.75-1.32,10.51,0.62,14.61,4.7c18.14,18.05,36.32,36.06,54.48,54.08c6.73,6.68,13.62,13.22,20.11,20.14
		c2.91,3.11,5,6.99,7.46,10.52c0,2,0,3.99,0,5.99c-2.46,3.53-4.46,7.51-7.45,10.51c-24.67,24.75-49.52,49.33-74.34,73.94
		c-6.62,6.57-15.22,7.18-21.46,1.63c-6.66-5.92-6.86-15.61-0.26-22.21c16.15-16.15,32.38-32.23,48.61-48.3
		c0.96-0.95,2.18-1.63,3.28-2.43c-0.19-0.39-0.39-0.77-0.58-1.16c-1.42,0-2.84,0-4.26,0c-102.94,0-205.89-0.06-308.83,0.1
		c-9.29,0.01-15.68-3.1-18.71-12.08C432,559.65,432,557.65,432,555.65z"/>
</g>
</svg>
