<svg xmlns="http://www.w3.org/2000/svg" viewBox="0 0 400.66 477.71"><defs><style>.cls-1{fill:#3373ba;}.cls-2{fill:#58595b;}</style></defs><g id="Layer_2" data-name="Layer 2"><g id="Layer_1-2" data-name="Layer 1"><polygon class="cls-1" points="227.11 150.77 281.59 196.37 400.67 94.54 400.67 4.2 227.11 150.77"/><polyline class="cls-1" points="227.11 150.46 278.47 107.47 400.67 206.69 400.67 297.03 267.87 184.88"/><polyline class="cls-2" points="0 477.71 0 0 203.15 169.18 200.06 256.33 58.77 142.05"/><line class="cls-2" x1="58.77" y1="123.99" x2="58.77" y2="477.71"/><line class="cls-2" y1="477.71" x2="58.77" y2="477.71"/><rect class="cls-2" y="116.35" width="71.98" height="361.36"/><polygon class="cls-1" points="400.67 329.35 346.19 374.95 227.11 273.12 227.11 182.78 400.67 329.35"/><line class="cls-1" x1="227.11" y1="475.61" x2="359.91" y2="363.46"/><polyline class="cls-1" points="400.67 329.04 349.31 286.06 227.11 385.27 227.11 475.61"/></g></g></svg>