<?xml version="1.0" encoding="utf-8"?>
<!-- Generator: Adobe Illustrator 25.3.1, SVG Export Plug-In . SVG Version: 6.00 Build 0)  -->
<svg version="1.1" id="Layer_1" xmlns="http://www.w3.org/2000/svg" xmlns:xlink="http://www.w3.org/1999/xlink" x="0px" y="0px"
	 viewBox="0 0 595.28 841.89" style="enable-background:new 0 0 595.28 841.89;" xml:space="preserve">
<style type="text/css">
	.st0{fill:#FFFFFF;}
	.st1{fill:#2B3990;}
	.st2{fill:#FFFFFF;stroke:#231F20;stroke-miterlimit:10;}
</style>
<g>
	<path class="st0" d="M408.24,454.48c-64,0-128,0-192,0c0-64,0-128,0-192c64,0,128,0,192,0
		C408.24,326.48,408.24,390.48,408.24,454.48z M313.25,446.09c46.69,0.37,85.32-37.73,85.65-85.39
		c0.33-47.26-37.64-85.41-85.06-85.89c-46.96-0.48-85.41,37.51-86.13,85.29C227.01,406.68,265.84,445.72,313.25,446.09z"/>
	<path class="st1" d="M313.25,446.09c-47.4-0.38-86.24-39.42-85.53-85.99c0.72-47.78,39.17-85.77,86.13-85.29
		c47.42,0.48,85.39,38.63,85.06,85.89C398.57,408.36,359.94,446.46,313.25,446.09z M361.06,400.57c0-13.22,0.58-26.17-0.2-39.04
		c-0.55-9.03-4.98-16.51-14.49-19.29c-9.27-2.71-17.49-1.18-23.71,6.93c-0.16,0.2-0.59,0.2-1.19,0.38c0-2.42,0-4.61,0-6.86
		c-6.52,0-12.78,0-19.08,0c0,19.39,0,38.51,0,57.77c6.45,0,12.71,0,19.23,0c0-10.94-0.08-21.62,0.03-32.31
		c0.07-6.72,4.38-11.5,10.12-11.63c6.3-0.14,9.85,3.58,10.04,11.21c0.24,9.58,0.11,19.17,0.14,28.75c0,1.32,0,2.65,0,4.1
		C348.55,400.57,354.63,400.57,361.06,400.57z M272.5,342.53c0,19.59,0,38.79,0,57.92c6.46,0,12.62,0,18.77,0
		c0-19.46,0-38.66,0-57.92C284.88,342.53,278.8,342.53,272.5,342.53z M281.86,334.34c6.42,0,10.81-3.92,10.88-9.71
		c0.07-6.02-4.41-10.26-10.82-10.23c-6.28,0.03-10.82,4.1-10.94,9.81C270.86,330.16,275.36,334.35,281.86,334.34z"/>
	<path class="st0" d="M361.06,400.57c-6.44,0-12.51,0-19.11,0c0-1.45,0-2.78,0-4.1c-0.03-9.58,0.09-19.17-0.14-28.75
		c-0.19-7.63-3.75-11.35-10.04-11.21c-5.74,0.13-10.05,4.92-10.12,11.63c-0.11,10.69-0.03,21.38-0.03,32.31c-6.52,0-12.78,0-19.23,0
		c0-19.26,0-38.38,0-57.77c6.3,0,12.56,0,19.08,0c0,2.25,0,4.44,0,6.86c0.61-0.18,1.04-0.17,1.19-0.38
		c6.22-8.11,14.44-9.64,23.71-6.93c9.51,2.78,13.95,10.27,14.49,19.29C361.64,374.41,361.06,387.36,361.06,400.57z"/>
	<path class="st0" d="M272.5,342.53c6.3,0,12.38,0,18.77,0c0,19.26,0,38.46,0,57.92c-6.15,0-12.31,0-18.77,0
		C272.5,381.33,272.5,362.12,272.5,342.53z"/>
	<path class="st0" d="M281.86,334.34c-6.51,0-11-4.19-10.88-10.13c0.12-5.71,4.66-9.78,10.94-9.81c6.41-0.03,10.89,4.21,10.82,10.23
		C292.67,330.42,288.29,334.34,281.86,334.34z"/>
</g>
<path class="st2" d="M505.57,450.59"/>
</svg>
