<svg id="Layer_1" data-name="Layer 1" xmlns="http://www.w3.org/2000/svg" viewBox="0 0 192 192"><defs><style>.cls-1{fill:#f7f7f7;}.cls-2{fill:#2b3990;}.cls-3,.cls-4{fill:#fff;}.cls-4{stroke:#231f20;stroke-miterlimit:10;}</style></defs><path class="cls-1" d="M192,192H0V0H192Zm-95-8.39c46.69.37,85.32-37.73,85.65-85.39C183,51,145,12.81,97.59,12.33c-47-.48-85.41,37.51-86.13,85.29-.7,46.58,38.14,85.62,85.55,86Z" transform="translate(0 0)"/><path class="cls-2" d="M97,183.61c-47.4-.38-86.24-39.42-85.53-86,.72-47.78,39.17-85.77,86.13-85.29C145,12.8,183,51,182.67,98.21,182.33,145.88,143.7,184,97,183.61Zm47.81-45.52c0-13.22.58-26.17-.2-39-.55-9-5-16.51-14.49-19.29-9.27-2.71-17.49-1.18-23.71,6.93-.16.2-.59.2-1.19.38V80.25H86.15V138h19.23c0-10.94-.08-21.62,0-32.31.07-6.72,4.38-11.5,10.12-11.63,6.3-.14,9.85,3.58,10,11.21.24,9.58.11,19.17.14,28.75v4.1Zm-88.56-58V138H75v-58Zm9.36-8.19C72,71.9,76.43,68,76.5,62.19c.07-6-4.41-10.26-10.82-10.23s-10.82,4.1-10.94,9.81c-.12,5.91,4.38,10.1,10.88,10.09Z" transform="translate(0 0)"/><path class="cls-3" d="M144.82,138.09H125.76V134c0-9.58.09-19.17-.14-28.75-.19-7.63-3.75-11.35-10-11.21-5.74.13-10,4.92-10.12,11.63-.11,10.69,0,21.38,0,32.31H86.15V80.2h19.08v6.86c.61-.18,1-.17,1.19-.38,6.22-8.11,14.44-9.64,23.71-6.93,9.51,2.78,14,10.27,14.49,19.29C145.4,111.93,144.82,124.88,144.82,138.09Z" transform="translate(0 0)"/><path class="cls-3" d="M56.26,80.05H75V138H56.26Z" transform="translate(0 0)"/><path class="cls-3" d="M65.62,71.86c-6.51,0-11-4.19-10.88-10.13C54.86,56,59.4,52,65.68,51.92S76.57,56.13,76.5,62.15C76.43,67.94,72.05,71.86,65.62,71.86Z" transform="translate(0 0)"/><path class="cls-4" d="M289.33,188.11" transform="translate(0 0)"/></svg>