<?xml version="1.0" encoding="utf-8"?>
<!-- Generator: Adobe Illustrator 25.3.1, SVG Export Plug-In . SVG Version: 6.00 Build 0)  -->
<svg version="1.1" id="Layer_1" xmlns="http://www.w3.org/2000/svg" xmlns:xlink="http://www.w3.org/1999/xlink" x="0px" y="0px"
	 viewBox="0 0 595.28 841.89" style="enable-background:new 0 0 595.28 841.89;" xml:space="preserve">
<style type="text/css">
	.st0{fill:#FFFFFF;}
	.st1{fill:#FFFFFF;stroke:#231F20;stroke-miterlimit:10;}
	.st2{fill:#2B3990;}
</style>
<g>
	<path class="st0" d="M408.24,454.48c-64,0-128,0-192,0c0-64,0-128,0-192c64,0,128,0,192,0
		C408.24,326.48,408.24,390.48,408.24,454.48z M313.25,446.09c46.69,0.37,85.32-37.73,85.65-85.39
		c0.33-47.26-37.64-85.41-85.06-85.89c-46.96-0.48-85.41,37.51-86.13,85.29C227.01,406.68,265.84,445.72,313.25,446.09z"/>
	<path class="st0" d="M361.06,400.57c-6.44,0-12.51,0-19.11,0c0-1.45,0-2.78,0-4.1c-0.03-9.58,0.09-19.17-0.14-28.75
		c-0.19-7.63-3.75-11.35-10.04-11.21c-5.74,0.13-10.05,4.92-10.12,11.63c-0.11,10.69-0.03,21.38-0.03,32.31c-6.52,0-12.78,0-19.23,0
		c0-19.26,0-38.38,0-57.77c6.3,0,12.56,0,19.08,0c0,2.25,0,4.44,0,6.86c0.61-0.18,1.04-0.17,1.19-0.38
		c6.22-8.11,14.44-9.64,23.71-6.93c9.51,2.78,13.95,10.27,14.49,19.29C361.64,374.41,361.06,387.36,361.06,400.57z"/>
	<path class="st0" d="M272.5,342.53c6.3,0,12.38,0,18.77,0c0,19.26,0,38.46,0,57.92c-6.15,0-12.31,0-18.77,0
		C272.5,381.33,272.5,362.12,272.5,342.53z"/>
	<path class="st0" d="M281.86,334.34c-6.51,0-11-4.19-10.88-10.13c0.12-5.71,4.66-9.78,10.94-9.81c6.41-0.03,10.89,4.21,10.82,10.23
		C292.67,330.42,288.29,334.34,281.86,334.34z"/>
</g>
<path class="st1" d="M505.57,450.59"/>
<g>
	<path class="st0" d="M564.55,459.2c-64,0-128,0-192,0c0-64,0-128,0-192c64,0,128,0,192,0C564.55,331.2,564.55,395.2,564.55,459.2z
		 M484.36,390.39c-0.1-0.24,0.13,0.17,0.25,0.61c2.65,9.39,9.28,14.22,19.04,13.82c12.33-0.51,21.95-6.23,28.99-16.02
		c10.95-15.22,13.1-32.52,10.51-50.57c-2.61-18.1-11.17-32.85-26.41-43.29c-13.47-9.22-28.64-12.28-44.72-11.23
		c-28.98,1.88-51.1,15.3-65.78,40.31c-10.82,18.44-14.35,38.59-11.2,59.7c3.48,23.33,15.55,40.8,36.81,51.55
		c14.67,7.41,30.27,8.26,46.23,6.29c9.71-1.2,18.86-4.13,27.59-9.11c-1.67-4.42-3.28-8.69-4.98-13.17c-1.26,0.49-2.33,0.81-3.3,1.3
		c-12.15,6.07-25.08,7.97-38.43,6.54c-19.85-2.12-34.53-11.99-42.77-30.45c-5.86-13.14-6.06-26.93-4.24-41.01
		c3.99-30.9,26.39-53.96,57.32-57.37c18.2-2,34.72,2.44,46.87,17.39c6.9,8.48,9.99,18.6,10.78,29.32
		c0.98,13.15-0.27,26.04-8.65,36.9c-2.44,3.16-6.27,5.64-9.97,7.31c-4.21,1.91-7.29-0.12-8.3-4.64c-0.53-2.39-0.84-4.99-0.5-7.4
		c1.2-8.48,2.65-16.94,4.13-25.38c1.54-8.78,3.23-17.54,4.84-26.2c-9.68-4.87-23.96-6.88-34.85-5.03
		c-26.67,4.53-45.69,26.67-46.05,53.64c-0.32,23.54,18.66,37.06,39.9,27.86C473.54,399.43,478.59,394.46,484.36,390.39z"/>
	<path class="st2" d="M484.36,390.39c-5.77,4.07-10.82,9.05-16.89,11.68c-21.25,9.2-40.22-4.33-39.9-27.86
		c0.36-26.96,19.38-49.11,46.05-53.64c10.89-1.85,25.17,0.16,34.85,5.03c-1.61,8.66-3.3,17.42-4.84,26.2
		c-1.48,8.44-2.93,16.89-4.13,25.38c-0.34,2.4-0.03,5,0.5,7.4c1,4.52,4.09,6.55,8.3,4.64c3.7-1.68,7.53-4.16,9.97-7.31
		c8.38-10.86,9.63-23.76,8.65-36.9c-0.8-10.72-3.89-20.84-10.78-29.32c-12.15-14.94-28.67-19.39-46.87-17.39
		c-30.93,3.4-53.34,26.47-57.32,57.37c-1.82,14.08-1.62,27.87,4.24,41.01c8.24,18.46,22.92,28.32,42.77,30.45
		c13.35,1.43,26.28-0.47,38.43-6.54c0.98-0.49,2.04-0.81,3.3-1.3c1.69,4.48,3.31,8.75,4.98,13.17c-8.73,4.98-17.88,7.91-27.59,9.11
		c-15.95,1.97-31.55,1.12-46.23-6.29c-21.27-10.74-33.33-28.22-36.81-51.55c-3.15-21.11,0.38-41.26,11.2-59.7
		c14.68-25.01,36.8-38.43,65.78-40.31c16.09-1.05,31.25,2.01,44.72,11.23c15.23,10.43,23.8,25.18,26.41,43.29
		c2.6,18.05,0.44,35.35-10.51,50.57c-7.04,9.79-16.66,15.51-28.99,16.02c-9.76,0.4-16.39-4.42-19.04-13.82
		C484.49,390.56,484.26,390.14,484.36,390.39z M488.47,337.08c-6.94-1.85-13.14-1.5-19.21,0.88c-13.94,5.46-23.38,20.72-22.79,36.94
		c0.18,5.05,1.54,9.75,6.41,12.24c5.1,2.61,10.48,2.06,14.74-1.46c4.13-3.42,8.05-7.45,10.97-11.93
		C485.74,362.77,485.23,349.57,488.47,337.08z"/>
	<path class="st0" d="M488.47,337.08c-3.24,12.49-2.74,25.69-9.89,36.67c-2.92,4.48-6.84,8.5-10.97,11.93
		c-4.26,3.53-9.64,4.08-14.74,1.46c-4.86-2.49-6.22-7.19-6.41-12.24c-0.58-16.22,8.85-31.49,22.79-36.94
		C475.33,335.58,481.53,335.23,488.47,337.08z"/>
</g>
</svg>
