<svg id="Layer_1" data-name="Layer 1" xmlns="http://www.w3.org/2000/svg" viewBox="0 0 192 192"><defs><style>.cls-1,.cls-4{fill:#fff;}.cls-1{stroke:#231f20;stroke-miterlimit:10;}.cls-2{fill:#f7f7f7;}.cls-3{fill:#2b3990;}</style></defs><path class="cls-1" d="M133,183.4" transform="translate(0 0)"/><path class="cls-2" d="M192,192H0V0H192Zm-80.2-68.8c-.1-.2.1.2.2.6,2.6,9.4,9.3,14.2,19,13.8,12.3-.5,22-6.2,29-16,11-15.2,13.1-32.5,10.5-50.6s-11.1-32.9-26.4-43.3c-13.5-9.2-28.6-12.3-44.7-11.2-29,1.9-51.1,15.3-65.8,40.3C22.8,75.2,19.2,95.4,22.4,116.5c3.5,23.3,15.5,40.8,36.8,51.5,14.7,7.4,30.3,8.3,46.2,6.3a74.78,74.78,0,0,0,27.6-9.1c-1.7-4.4-3.3-8.7-5-13.2-1.3.5-2.3.8-3.3,1.3a67.3,67.3,0,0,1-38.4,6.5c-19.9-2.1-34.5-12-42.8-30.5-5.9-13.1-6.1-26.9-4.2-41,4-30.9,26.4-54,57.3-57.4,18.2-2,34.7,2.4,46.9,17.4,6.9,8.5,10,18.6,10.8,29.3,1,13.1-.3,26-8.7,36.9a25.87,25.87,0,0,1-10,7.3c-4.2,1.9-7.3-.1-8.3-4.6a20.28,20.28,0,0,1-.5-7.4c1.2-8.5,2.6-16.9,4.1-25.4,1.5-8.8,3.2-17.5,4.8-26.2-9.7-4.9-24-6.9-34.8-5a54.71,54.71,0,0,0-46.1,53.6c-.3,23.5,18.7,37.1,39.9,27.9,6.3-2.5,11.3-7.4,17.1-11.5Z" transform="translate(0 0)"/><path class="cls-3" d="M111.8,123.2c-5.8,4.1-10.8,9-16.9,11.7C73.7,144.1,54.7,130.6,55,107a54.64,54.64,0,0,1,46-53.6c10.9-1.9,25.2.2,34.9,5-1.6,8.7-3.3,17.4-4.8,26.2-1.5,8.4-2.9,16.9-4.1,25.4a20.28,20.28,0,0,0,.5,7.4c1,4.5,4.1,6.5,8.3,4.6a25.87,25.87,0,0,0,10-7.3c8.4-10.9,9.6-23.8,8.7-36.9-.8-10.7-3.9-20.8-10.8-29.3C131.5,33.6,115,29.1,96.8,31.1,65.9,34.5,43.5,57.6,39.5,88.5c-1.8,14.1-1.6,27.9,4.2,41C51.9,148,66.6,157.8,86.5,160a68.86,68.86,0,0,0,38.4-6.5c1-.5,2-.8,3.3-1.3,1.7,4.5,3.3,8.8,5,13.2a71.46,71.46,0,0,1-27.6,9.1c-15.9,2-31.5,1.1-46.2-6.3C38.1,157.5,26.1,140,22.6,116.7,19.5,95.6,23,75.4,33.8,57,48.5,32,70.5,18.6,99.5,16.7c16.1-1,31.3,2,44.7,11.2,15.2,10.4,23.8,25.2,26.4,43.3s.4,35.4-10.5,50.6c-7,9.8-16.7,15.5-29,16-9.8.4-16.4-4.4-19-13.8C111.9,123.4,111.7,123,111.8,123.2Zm4.1-53.3a30.08,30.08,0,0,0-19.2.9c-13.9,5.5-23.4,20.7-22.8,36.9.2,5,1.5,9.8,6.4,12.2A12.85,12.85,0,0,0,95,118.4a56.77,56.77,0,0,0,11-11.9c7.2-10.9,6.7-24.1,9.9-36.6Z" transform="translate(0 0)"/><path class="cls-4" d="M115.9,69.9c-3.2,12.5-2.7,25.7-9.9,36.7a56.77,56.77,0,0,1-11,11.9A13,13,0,0,1,80.3,120c-4.9-2.5-6.2-7.2-6.4-12.2-.6-16.2,8.9-31.5,22.8-36.9A28.79,28.79,0,0,1,115.9,69.9Z" transform="translate(0 0)"/></svg>