<svg id="Layer_1" data-name="Layer 1" xmlns="http://www.w3.org/2000/svg" viewBox="0 0 384 384"><defs><style>.cls-1,.cls-2{fill:#fff;}.cls-2{stroke:#231f20;stroke-miterlimit:10;}.cls-3{fill:#f7f7f7;}.cls-4{fill:#2b3990;}</style></defs><path class="cls-1" d="M239,259.71H47v-192H239Zm-95-8.39c46.69.37,85.32-37.73,85.65-85.39C230,118.67,192,80.52,144.56,80c-47-.48-85.41,37.51-86.13,85.29-.7,46.58,38.14,85.62,85.55,86Z" transform="translate(0 0)"/><path class="cls-1" d="M191.79,205.8H172.73v-4.1c0-9.58.09-19.17-.14-28.75-.19-7.63-3.75-11.35-10-11.21-5.74.13-10,4.92-10.12,11.63-.11,10.69,0,21.38,0,32.31H133.12V147.91H152.2v6.86c.61-.18,1-.17,1.19-.38,6.22-8.11,14.44-9.64,23.71-6.93,9.51,2.78,14,10.27,14.49,19.29C192.37,179.64,191.79,192.59,191.79,205.8Z" transform="translate(0 0)"/><path class="cls-1" d="M103.23,147.76H122v57.92H103.23Z" transform="translate(0 0)"/><path class="cls-1" d="M112.59,139.57c-6.51,0-11-4.19-10.88-10.13.12-5.71,4.66-9.78,10.94-9.81s10.89,4.21,10.82,10.23C123.4,135.65,119,139.57,112.59,139.57Z" transform="translate(0 0)"/><path class="cls-2" d="M336.3,255.82" transform="translate(0 0)"/><path class="cls-3" d="M384,384H0V0H384ZM23.89,195.15c0,94.78,76.42,171.51,171,171.66S366.64,290.3,366.73,195.87c.09-95.2-76.5-172-171.46-172A171.29,171.29,0,0,0,23.89,195.07Z" transform="translate(0 0)"/><path class="cls-4" d="M23.89,195.15A171.29,171.29,0,0,1,195.17,23.85h.1c95,0,171.55,76.83,171.46,172-.09,94.43-77.13,171.08-171.81,170.94S23.85,289.93,23.89,195.15Zm214.9,102.29a29,29,0,0,0-3.89-3.63c-5-3.16-6.53-7.59-6.22-13.38.42-8.09.38-16.22.1-24.32-.31-8.92-1.09-17.83-9.61-23.42,7.75-1.72,15.33-3,22.69-5.11,10.83-3.08,19.33-9.28,24.93-19.45,4.24-7.7,5.32-16,6.17-24.43,1.49-14.87-.6-29-10.75-40.73-2.3-2.67-2.68-5.27-2.19-8.54a46,46,0,0,0-1.15-20.73c-1.13-3.66-3.22-4.83-7-4.13-8.89,1.64-16.58,6-24.34,10.21a8.51,8.51,0,0,1-5.17,1.14c-15.74-3-31.58-3.37-47.19-.18-6.07,1.24-10.42.43-15.35-2.83A47.54,47.54,0,0,0,138,109.84c-2.71-.25-4,.76-4.89,3.32a47,47,0,0,0-1.21,25.46,6.25,6.25,0,0,1-1.49,6.06c-5.36,6.32-9.2,13.47-9.65,21.85a120.56,120.56,0,0,0,.43,19c2.23,21.17,13.24,35.62,33.76,42.1,6.91,2.18,14.11,3.46,20.29,4.94-2.13,4.08-4.42,8.53-6.8,12.92a4.49,4.49,0,0,1-1.8,1.71c-8.56,4.5-21.1,2.07-27.35-5.27-2.67-3.13-5.2-6.39-8-9.4-3.08-3.31-6.85-5.5-11.56-5-1.56.15-3,1.08-4.55,1.66.93,1.22,1.63,2.78,2.84,3.6a33.39,33.39,0,0,1,12.31,15.15c4.71,11.16,13.45,16.22,25.32,16.31h11.79c0,5.51-.24,11.34.07,17.15.29,5.3-1.57,9.12-6,12-1.52,1-2.64,2.56-4.13,4.05,9.91,4.66,21.86-2.66,22-12.62.1-9.11,0-18.22.42-27.31.1-2.6,1.43-5.15,2.44-8.54.86,1.34,1.09,1.52,1.09,1.71-.21,13.72-.26,27.44-.8,41.14-.1,2.59-2.2,5.09-3.33,7.65-.5,1.14-.87,2.34-1.3,3.52,1.26.34,2.56,1.08,3.77,1,6.63-.69,13.25-7,13.82-13.79.73-8.69,1-17.42,1.23-26.14.13-4.61-.23-9.23-.2-13.84,0-.7.91-1.39,1.4-2.08.6.61,1.49,1.12,1.74,1.86a9.44,9.44,0,0,1,.11,3c0,11-.06,22,.17,32.94.19,9.24,4.28,14.64,13,17.47,1.54.5,3.43-.11,5.16-.21-.43-1.55-.46-3.43-1.38-4.6a19.52,19.52,0,0,1-4.12-12.86c.15-10.6,0-21.21,0-31.82,0-1.18.13-2.36.23-4,3.26,2.07,3.32,5,3.4,7.75.26,8.85.34,17.71.44,26.57.11,10.64,10.72,17.6,22.17,13.19Z" transform="translate(0 0)"/><path class="cls-1" d="M238.79,297.44c-11.45,4.41-22-2.55-22.15-13.35-.1-8.86-.19-17.71-.44-26.57-.08-2.72-.14-5.67-3.4-7.75-.1,1.64-.22,2.82-.23,4,0,10.61.09,21.21,0,31.82a19.52,19.52,0,0,0,4.12,12.86c.92,1.18.94,3,1.38,4.6-1.73.1-3.62.71-5.16.21-8.74-2.83-12.83-8.23-13-17.47-.23-11-.12-22-.17-32.94a9.44,9.44,0,0,0-.11-3c-.26-.73-1.14-1.25-1.74-1.86-.49.69-1.4,1.39-1.4,2.08,0,4.61.33,9.23.2,13.84-.25,8.72-.5,17.45-1.23,26.14-.57,6.77-7.19,13.1-13.82,13.79-1.21.13-2.51-.61-3.77-.95.43-1.17.79-2.38,1.3-3.52,1.12-2.56,3.23-5.06,3.33-7.65.55-13.7.6-27.43.8-41.14,0-.18-.22-.37-1.09-1.71-1,3.39-2.34,5.94-2.44,8.54-.37,9.1-.32,18.21-.42,27.31-.1,10-12,17.28-22,12.62,1.49-1.5,2.62-3.08,4.13-4,4.44-2.84,6.3-6.67,6-12-.31-5.8-.07-11.64-.07-17.15H155.62c-11.87-.09-20.61-5.15-25.32-16.31A33.39,33.39,0,0,0,118,232.68c-1.21-.81-1.91-2.38-2.84-3.6,1.52-.58,3-1.51,4.55-1.66,4.71-.46,8.48,1.74,11.56,5,2.8,3,5.33,6.27,8,9.4,6.25,7.34,18.79,9.77,27.35,5.27a4.49,4.49,0,0,0,1.8-1.71c2.38-4.4,4.66-8.84,6.8-12.92-6.17-1.48-13.37-2.75-20.29-4.94-20.52-6.48-31.54-20.93-33.76-42.1a120.56,120.56,0,0,1-.43-19c.44-8.38,4.29-15.53,9.65-21.85a6.25,6.25,0,0,0,1.49-6.06,47,47,0,0,1,1.21-25.46c.87-2.56,2.18-3.57,4.89-3.32a47.43,47.43,0,0,1,21.87,8.07c4.93,3.26,9.27,4.07,15.35,2.83,15.61-3.19,31.45-2.77,47.19.18a8.51,8.51,0,0,0,5.17-1.14c7.76-4.26,15.46-8.57,24.34-10.21,3.78-.7,5.86.48,7,4.13A46.13,46.13,0,0,1,260,134.32c-.48,3.27-.11,5.87,2.19,8.54,10.15,11.78,12.24,25.86,10.75,40.73-.84,8.41-1.93,16.74-6.17,24.43-5.59,10.16-14.1,16.37-24.93,19.45-7.36,2.09-14.93,3.39-22.69,5.11,8.52,5.58,9.31,14.49,9.61,23.42.28,8.1.32,16.23-.1,24.32-.3,5.8,1.23,10.22,6.22,13.38A31.8,31.8,0,0,1,238.79,297.44Z" transform="translate(0 0)"/></svg>