<?xml version="1.0" encoding="utf-8"?>
<!-- Generator: Adobe Illustrator 25.3.1, SVG Export Plug-In . SVG Version: 6.00 Build 0)  -->
<svg version="1.1" id="Layer_1" xmlns="http://www.w3.org/2000/svg" xmlns:xlink="http://www.w3.org/1999/xlink" x="0px" y="0px"
	 viewBox="0 0 595.28 841.89" style="enable-background:new 0 0 595.28 841.89;" xml:space="preserve">
<style type="text/css">
	.st0{fill:#FFFFFF;}
	.st1{fill:#FFFFFF;stroke:#231F20;stroke-miterlimit:10;}
	.st2{fill:#2B3990;}
</style>
<g>
	<path class="st0" d="M408.24,454.48c-64,0-128,0-192,0c0-64,0-128,0-192c64,0,128,0,192,0
		C408.24,326.48,408.24,390.48,408.24,454.48z M313.25,446.09c46.69,0.37,85.32-37.73,85.65-85.39
		c0.33-47.26-37.64-85.41-85.06-85.89c-46.96-0.48-85.41,37.51-86.13,85.29C227.01,406.68,265.84,445.72,313.25,446.09z"/>
	<path class="st0" d="M361.06,400.57c-6.44,0-12.51,0-19.11,0c0-1.45,0-2.78,0-4.1c-0.03-9.58,0.09-19.17-0.14-28.75
		c-0.19-7.63-3.75-11.35-10.04-11.21c-5.74,0.13-10.05,4.92-10.12,11.63c-0.11,10.69-0.03,21.38-0.03,32.31c-6.52,0-12.78,0-19.23,0
		c0-19.26,0-38.38,0-57.77c6.3,0,12.56,0,19.08,0c0,2.25,0,4.44,0,6.86c0.61-0.18,1.04-0.17,1.19-0.38
		c6.22-8.11,14.44-9.64,23.71-6.93c9.51,2.78,13.95,10.27,14.49,19.29C361.64,374.41,361.06,387.36,361.06,400.57z"/>
	<path class="st0" d="M272.5,342.53c6.3,0,12.38,0,18.77,0c0,19.26,0,38.46,0,57.92c-6.15,0-12.31,0-18.77,0
		C272.5,381.33,272.5,362.12,272.5,342.53z"/>
	<path class="st0" d="M281.86,334.34c-6.51,0-11-4.19-10.88-10.13c0.12-5.71,4.66-9.78,10.94-9.81c6.41-0.03,10.89,4.21,10.82,10.23
		C292.67,330.42,288.29,334.34,281.86,334.34z"/>
</g>
<path class="st1" d="M505.57,450.59"/>
<g>
	<path class="st0" d="M553.27,578.77c-127.97,0-255.95,0-384,0c0-127.94,0-255.91,0-384c127.95,0,255.97,0,384,0
		C553.27,322.7,553.27,450.72,553.27,578.77z M193.16,389.92c-0.03,94.78,76.42,171.51,171.03,171.66
		c94.68,0.15,171.72-76.51,171.81-170.94c0.09-95.2-76.5-172.03-171.46-172.02C269.85,218.62,193.19,295.25,193.16,389.92z"/>
	<path class="st2" d="M193.16,389.92c0.03-94.67,76.69-171.3,171.38-171.3c94.96-0.01,171.55,76.83,171.46,172.02
		c-0.09,94.43-77.13,171.08-171.81,170.94C269.58,561.43,193.12,484.7,193.16,389.92z M408.06,492.21
		c-1.51-1.44-2.54-2.78-3.89-3.63c-5-3.16-6.53-7.59-6.22-13.38c0.42-8.09,0.38-16.22,0.1-24.32c-0.31-8.92-1.09-17.83-9.61-23.42
		c7.75-1.72,15.33-3.02,22.69-5.11c10.83-3.08,19.33-9.28,24.93-19.45c4.24-7.7,5.32-16.02,6.17-24.43
		c1.49-14.87-0.6-28.95-10.75-40.73c-2.3-2.67-2.68-5.27-2.19-8.54c1.03-6.96,0.98-13.89-1.15-20.73c-1.13-3.66-3.22-4.83-7-4.13
		c-8.89,1.64-16.58,5.95-24.34,10.21c-1.5,0.82-3.56,1.44-5.17,1.14c-15.74-2.95-31.58-3.37-47.19-0.18
		c-6.07,1.24-10.42,0.43-15.35-2.83c-6.57-4.34-13.85-7.32-21.87-8.07c-2.71-0.25-4.02,0.76-4.89,3.32
		c-2.84,8.4-3.06,16.92-1.21,25.46c0.55,2.55,0.07,4.22-1.49,6.06c-5.36,6.32-9.2,13.47-9.65,21.85
		c-0.34,6.32-0.23,12.73,0.43,19.02c2.23,21.17,13.24,35.62,33.76,42.1c6.91,2.18,14.11,3.46,20.29,4.94
		c-2.13,4.08-4.42,8.53-6.8,12.92c-0.38,0.7-1.09,1.34-1.8,1.71c-8.56,4.5-21.1,2.07-27.35-5.27c-2.67-3.13-5.2-6.39-8-9.4
		c-3.08-3.31-6.85-5.5-11.56-5.04c-1.56,0.15-3.04,1.08-4.55,1.66c0.93,1.22,1.63,2.78,2.84,3.6c5.67,3.82,9.66,8.88,12.31,15.15
		c4.71,11.16,13.45,16.22,25.32,16.31c3.7,0.03,7.4,0,11.79,0c0,5.51-0.24,11.34,0.07,17.15c0.29,5.3-1.57,9.12-6.01,11.96
		c-1.52,0.97-2.64,2.56-4.13,4.05c9.91,4.66,21.86-2.66,21.96-12.62c0.1-9.11,0.05-18.22,0.42-27.31c0.1-2.6,1.43-5.15,2.44-8.54
		c0.86,1.34,1.09,1.52,1.09,1.71c-0.21,13.72-0.26,27.44-0.8,41.14c-0.1,2.59-2.2,5.09-3.33,7.65c-0.5,1.14-0.87,2.34-1.3,3.52
		c1.26,0.34,2.56,1.08,3.77,0.95c6.63-0.69,13.25-7.02,13.82-13.79c0.73-8.69,0.98-17.42,1.23-26.14c0.13-4.61-0.23-9.23-0.2-13.84
		c0-0.7,0.91-1.39,1.4-2.08c0.6,0.61,1.49,1.12,1.74,1.86c0.31,0.89,0.11,1.97,0.11,2.97c0.04,10.98-0.06,21.96,0.17,32.94
		c0.19,9.24,4.28,14.64,13.02,17.47c1.54,0.5,3.43-0.11,5.16-0.21c-0.43-1.55-0.46-3.43-1.38-4.6c-2.98-3.84-4.19-8.03-4.12-12.86
		c0.15-10.6,0.04-21.21,0.05-31.82c0-1.18,0.13-2.36,0.23-4c3.26,2.07,3.32,5.03,3.4,7.75c0.26,8.85,0.34,17.71,0.44,26.57
		C386.03,489.66,396.61,496.62,408.06,492.21z"/>
	<path class="st0" d="M408.06,492.21c-11.45,4.41-22.03-2.55-22.15-13.35c-0.1-8.86-0.19-17.71-0.44-26.57
		c-0.08-2.72-0.14-5.67-3.4-7.75c-0.1,1.64-0.22,2.82-0.23,4c-0.02,10.61,0.09,21.21-0.05,31.82c-0.07,4.83,1.14,9.02,4.12,12.86
		c0.92,1.18,0.94,3.05,1.38,4.6c-1.73,0.1-3.62,0.71-5.16,0.21c-8.74-2.83-12.83-8.23-13.02-17.47
		c-0.23-10.98-0.12-21.96-0.17-32.94c0-1,0.2-2.08-0.11-2.97c-0.26-0.73-1.14-1.25-1.74-1.86c-0.49,0.69-1.4,1.39-1.4,2.08
		c-0.03,4.61,0.33,9.23,0.2,13.84c-0.25,8.72-0.5,17.45-1.23,26.14c-0.57,6.77-7.19,13.1-13.82,13.79
		c-1.21,0.13-2.51-0.61-3.77-0.95c0.43-1.17,0.79-2.38,1.3-3.52c1.12-2.56,3.23-5.06,3.33-7.65c0.55-13.7,0.6-27.43,0.8-41.14
		c0-0.18-0.22-0.37-1.09-1.71c-1.01,3.39-2.34,5.94-2.44,8.54c-0.37,9.1-0.32,18.21-0.42,27.31c-0.1,9.96-12.04,17.28-21.96,12.62
		c1.49-1.5,2.62-3.08,4.13-4.05c4.44-2.84,6.3-6.67,6.01-11.96c-0.31-5.8-0.07-11.64-0.07-17.15c-4.39,0-8.09,0.02-11.79,0
		c-11.87-0.09-20.61-5.15-25.32-16.31c-2.65-6.27-6.64-11.33-12.31-15.15c-1.21-0.81-1.91-2.38-2.84-3.6c1.52-0.58,3-1.51,4.55-1.66
		c4.71-0.46,8.48,1.74,11.56,5.04c2.8,3.01,5.33,6.27,8,9.4c6.25,7.34,18.79,9.77,27.35,5.27c0.71-0.37,1.42-1.02,1.8-1.71
		c2.38-4.4,4.66-8.84,6.8-12.92c-6.17-1.48-13.37-2.75-20.29-4.94c-20.52-6.48-31.54-20.93-33.76-42.1
		c-0.66-6.29-0.77-12.7-0.43-19.02c0.44-8.38,4.29-15.53,9.65-21.85c1.56-1.84,2.04-3.51,1.49-6.06
		c-1.85-8.54-1.63-17.06,1.21-25.46c0.87-2.56,2.18-3.57,4.89-3.32c8.03,0.75,15.3,3.73,21.87,8.07c4.93,3.26,9.27,4.07,15.35,2.83
		c15.61-3.19,31.45-2.77,47.19,0.18c1.61,0.3,3.67-0.31,5.17-1.14c7.76-4.26,15.46-8.57,24.34-10.21c3.78-0.7,5.86,0.48,7,4.13
		c2.12,6.84,2.18,13.77,1.15,20.73c-0.48,3.27-0.11,5.87,2.19,8.54c10.15,11.78,12.24,25.86,10.75,40.73
		c-0.84,8.41-1.93,16.74-6.17,24.43c-5.59,10.16-14.1,16.37-24.93,19.45c-7.36,2.09-14.93,3.39-22.69,5.11
		c8.52,5.58,9.31,14.49,9.61,23.42c0.28,8.1,0.32,16.23-0.1,24.32c-0.3,5.8,1.23,10.22,6.22,13.38
		C405.51,489.43,406.55,490.77,408.06,492.21z"/>
</g>
</svg>
