<svg id="Layer_1" data-name="Layer 1" xmlns="http://www.w3.org/2000/svg" viewBox="0 0 610.6 581.39"><defs><style>.cls-1{fill:#1b1464;stroke:#1b1464;}.cls-1,.cls-2,.cls-3,.cls-5{stroke-miterlimit:10;stroke-width:3px;}.cls-2,.cls-3{fill:none;}.cls-2,.cls-3,.cls-5{stroke:#2e3192;}.cls-2{stroke-linecap:round;}.cls-4{isolation:isolate;font-size:40.95px;font-family:Futura-CondensedExtraBold, Futura;font-weight:800;}.cls-4,.cls-5{fill:#2e3192;}</style></defs><path class="cls-1" d="M580.6,121.9l-183,441.3a9.37,9.37,0,0,1-17.3,0L194.4,111.1a29.39,29.39,0,0,0-27.3-18.3h0a25.73,25.73,0,0,0-23.8,35.5L352,637.7a36.79,36.79,0,0,0,34,22.8h0c15,0,28.5-9.1,34.8-24.7L601.3,186.4c3.2-7.9,17.3-5.1,17.3,5.2V633.3a27.27,27.27,0,0,0,27.3,27.3h.6a27.27,27.27,0,0,0,27.3-27.3V140a47.16,47.16,0,0,0-47.2-47.2h-2.5A47.16,47.16,0,0,0,580.6,121.9Z" transform="translate(-89.2 -91.1)"/><line class="cls-2" x1="38.7" y1="87.3" x2="38.7" y2="569.4"/><line class="cls-2" x1="1.5" y1="18.4" x2="1.5" y2="569.4"/><line class="cls-2" x1="81.5" y1="182.2" x2="79.6" y2="569.4"/><line class="cls-2" x1="122.4" y1="275.3" x2="120.6" y2="569.4"/><line class="cls-3" x1="1.5" y1="526.6" x2="120.6" y2="526.6"/><text class="cls-4" transform="translate(9.71 568.15)">1</text><text class="cls-4" transform="translate(48.49 566.45)">2</text><text class="cls-4" transform="translate(89.44 566.45)">3</text><path class="cls-5" d="M605.1,121.8l-183,441.3a9.37,9.37,0,0,1-17.3,0L218.9,110.9a29.39,29.39,0,0,0-27.3-18.3h0a25.73,25.73,0,0,0-23.8,35.5L376.5,637.5a36.79,36.79,0,0,0,34,22.8h0c15,0,28.5-9.1,34.8-24.7L625.8,186.2c3.2-7.9,17.3-5.1,17.3,5.2V633a27.27,27.27,0,0,0,27.3,27.3h.6A27.27,27.27,0,0,0,698.3,633V139.8a47.16,47.16,0,0,0-47.2-47.2h-2.5A47.1,47.1,0,0,0,605.1,121.8Z" transform="translate(-89.2 -91.1)"/></svg>