<?xml version="1.0" encoding="utf-8"?>
<!-- Generator: Adobe Illustrator 25.3.1, SVG Export Plug-In . SVG Version: 6.00 Build 0)  -->
<svg version="1.1" id="Layer_1" xmlns="http://www.w3.org/2000/svg" xmlns:xlink="http://www.w3.org/1999/xlink" x="0px" y="0px"
	 viewBox="0 0 1366 768" style="enable-background:new 0 0 1366 768;" xml:space="preserve">
<style type="text/css">
	.st0{fill:#1B1464;stroke:#1B1464;stroke-width:3;stroke-miterlimit:10;}
	.st1{fill:none;stroke:#2E3192;stroke-width:3;stroke-linecap:round;stroke-miterlimit:10;}
	.st2{fill:none;stroke:#2E3192;stroke-width:3;stroke-miterlimit:10;}
	.st3{fill:#2E3192;}
	.st4{font-family:'Futura-CondensedExtraBold';}
	.st5{font-size:40.9477px;}
	.st6{fill:#2E3192;stroke:#2E3192;stroke-width:3;stroke-miterlimit:10;}
</style>
<path class="st0" d="M580.6,121.9l-183,441.3c-3.2,7.7-14.1,7.7-17.3,0L194.4,111.1c-4.5-11.1-15.3-18.3-27.3-18.3l0,0
	c-18.3,0-30.7,18.5-23.8,35.5L352,637.7c5.7,13.8,19.1,22.8,34,22.8l0,0c15,0,28.5-9.1,34.8-24.7l180.5-449.4
	c3.2-7.9,17.3-5.1,17.3,5.2v441.7c0,15.1,12.2,27.3,27.3,27.3h0.6c15.1,0,27.3-12.2,27.3-27.3V140c0-26.1-21.1-47.2-47.2-47.2h-2.5
	C605.1,92.8,587.9,104.3,580.6,121.9z"/>
<line class="st1" x1="127.9" y1="178.4" x2="127.9" y2="660.5"/>
<line class="st1" x1="90.7" y1="109.5" x2="90.7" y2="660.5"/>
<line class="st1" x1="170.7" y1="273.3" x2="168.8" y2="660.5"/>
<line class="st1" x1="211.6" y1="366.4" x2="209.8" y2="660.5"/>
<line class="st2" x1="90.7" y1="617.7" x2="209.8" y2="617.7"/>
<text transform="matrix(1 0 0 1 98.912 659.2507)" class="st3 st4 st5">1</text>
<text transform="matrix(1 0 0 1 137.6942 657.5486)" class="st3 st4 st5">2</text>
<text transform="matrix(1 0 0 1 178.6425 657.5486)" class="st3 st4 st5">3</text>
<path class="st6" d="M605.1,121.8l-183,441.3c-3.2,7.7-14.1,7.7-17.3,0L218.9,110.9c-4.5-11.1-15.3-18.3-27.3-18.3l0,0
	c-18.3,0-30.7,18.5-23.8,35.5l208.7,509.4c5.7,13.8,19.1,22.8,34,22.8l0,0c15,0,28.5-9.1,34.8-24.7l180.5-449.4
	c3.2-7.9,17.3-5.1,17.3,5.2V633c0,15.1,12.2,27.3,27.3,27.3h0.6c15.1,0,27.3-12.2,27.3-27.3V139.8c0-26.1-21.1-47.2-47.2-47.2h-2.5
	C629.6,92.6,612.4,104.1,605.1,121.8z"/>
</svg>
