<?xml version="1.0" encoding="utf-8"?>
<!-- Generator: Adobe Illustrator 25.3.1, SVG Export Plug-In . SVG Version: 6.00 Build 0)  -->
<svg version="1.1" id="Layer_1" xmlns="http://www.w3.org/2000/svg" xmlns:xlink="http://www.w3.org/1999/xlink" x="0px" y="0px"
	 viewBox="0 0 1366 768" style="enable-background:new 0 0 1366 768;" xml:space="preserve">
<style type="text/css">
	.st0{fill:#4D4D4D;stroke:#4D4D4D;stroke-width:3;stroke-miterlimit:10;}
	.st1{fill:#999999;stroke:#999999;stroke-width:2;stroke-linecap:round;stroke-miterlimit:10;}
	.st2{fill:#999999;stroke:#999999;stroke-width:2;stroke-miterlimit:10;}
	.st3{fill:#999999;}
	.st4{font-family:'Futura-CondensedMedium';}
	.st5{font-size:11px;}
</style>
<path class="st0" d="M588.11,225.33l-49.15,118.55c-0.86,2.07-3.79,2.06-4.64-0.01l-49.95-121.45c-1.22-2.97-4.12-4.91-7.33-4.91h0
	c-4.91,0-8.26,4.98-6.39,9.53l56.06,136.83c1.52,3.71,5.13,6.13,9.14,6.13h0c4.03,0,7.66-2.45,9.34-6.64l48.48-120.72
	c0.85-2.11,4.66-1.37,4.66,1.39v118.65c0,4.05,3.28,7.33,7.33,7.33h0.16c4.05,0,7.33-3.28,7.33-7.33V230.19
	c0-7-5.67-12.67-12.67-12.67h-0.66C594.69,217.51,590.07,220.6,588.11,225.33z"/>
<line class="st1" x1="466.5" y1="240.5" x2="466.5" y2="370"/>
<line class="st1" x1="456.5" y1="222" x2="456.5" y2="370"/>
<line class="st1" x1="478" y1="266" x2="477.5" y2="370"/>
<line class="st1" x1="489" y1="291" x2="488.5" y2="370"/>
<line class="st2" x1="456.5" y1="358.5" x2="488.5" y2="358.5"/>
<text transform="matrix(1 0 0 1 459.7188 369.6699)" class="st3 st4 st5">1</text>
<text transform="matrix(1 0 0 1 469.1375 369.2125)" class="st3 st4 st5">2</text>
<text transform="matrix(1 0 0 1 480.1375 369.2125)" class="st3 st4 st5">3</text>
</svg>
